<svg width="200" height="226" viewBox="0 0 200 226" fill="none" xmlns="http://www.w3.org/2000/svg">
<path fill-rule="evenodd" clip-rule="evenodd" d="M200 100.5C200 45.2715 155.228 0.5 100 0.5C44.7715 0.5 0 45.2715 0 100.5C0 155.728 44.7715 200.5 100 200.5C155.228 200.5 200 155.728 200 100.5ZM133 100.5C133 82.2746 118.225 67.5 100 67.5C81.7746 67.5 67 82.2746 67 100.5C67 118.725 81.7746 133.5 100 133.5C118.225 133.5 133 118.725 133 100.5Z" fill="#012F34"/>
<rect x="43" y="0.5" width="43" height="43" transform="rotate(90 43 0.5)" fill="#79C8C7"/>
<path fill-rule="evenodd" clip-rule="evenodd" d="M200 124.987C200 69.758 155.228 24.9865 100 24.9865C44.7715 24.9865 0 69.758 0 124.987C0 180.215 44.7715 224.987 100 224.987C155.228 224.987 200 180.215 200 124.987ZM133 124.987C133 106.761 118.225 91.9865 100 91.9865C81.7746 91.9865 67 106.761 67 124.987C67 143.212 81.7746 157.987 100 157.987C118.225 157.987 133 143.212 133 124.987Z" fill="#F67E7E"/>
</svg>
